<?xml version="1.0" encoding="utf-8"?>
<!-- Generator: Adobe Illustrator 16.0.4, SVG Export Plug-In . SVG Version: 6.00 Build 0)  -->
<!DOCTYPE svg PUBLIC "-//W3C//DTD SVG 1.1//EN" "http://www.w3.org/Graphics/SVG/1.1/DTD/svg11.dtd">
<svg version="1.1" id="Capa_1" xmlns="http://www.w3.org/2000/svg" xmlns:xlink="http://www.w3.org/1999/xlink" x="0px" y="0px"
	 width="612px" height="612px" viewBox="0 90 612 612" enable-background="new 0 90 612 612" xml:space="preserve">
<g id="Right">
	<g>
		<path fill="#40A7C6" d="M277.58,269.679l-0.057,0.077c-5.125-4.705-11.857-7.631-19.335-7.631
			c-15.835,0-28.688,12.852-28.688,28.688c0,8.377,3.634,15.835,9.352,21.076l-0.057,0.077L330.48,396l-91.686,84.055l0.057,0.076
			c-5.718,5.221-9.352,12.68-9.352,21.057c0,15.836,12.852,28.688,28.688,28.688c7.478,0,14.21-2.926,19.335-7.611l0.057,0.076
			l114.75-105.188c5.91-5.451,9.295-13.101,9.295-21.152s-3.385-15.702-9.295-21.152L277.58,269.679z M306,90
			C137.012,90,0,227.012,0,396s137.012,306,306,306s306-137.012,306-306S474.988,90,306,90z M306,644.625
			C168.912,644.625,57.375,533.088,57.375,396S168.912,147.375,306,147.375S554.625,258.912,554.625,396
			S443.088,644.625,306,644.625z"/>
	</g>
</g>
</svg>
