<svg class="circlearrow" xmlns="http://www.w3.org/2000/svg" xmlns:xlink="http://www.w3.org/1999/xlink" version="1.1" id="Layer_1" x="0px" y="0px" width="204px" height="204px" viewBox="0 0 204 204" enable-background="new 0 0 204 204" xml:space="preserve">
<path d="M102 0C45.667 0 0 45.7 0 102s45.667 102 102 102s102-45.667 102-102S158.333 0 102 0z M163.805 105.5 c-8.045 3.973-39.098 19.394-63.937 31.656c-24.209 11.953-43.811-2.403-49.502-7.344c-0.757-0.656-0.742-2.013 0.229-2.493 c0.56-0.275 28.715-14.175 52.017-25.679C79.203 90.7 51.2 77.7 50.6 77.422c-0.979-0.457-1.021-1.812-0.273-2.487 c5.603-5.076 24.942-19.897 49.357-8.529c19.763 9.2 62.4 32 64.1 33.084C166.396 101.2 166.7 103.5 163.8 105.49z"/>
</svg>
